PathFileType	4	(X/Y/Z)	Patient4_TMGait_0pt8_01_right_23.trc.trc
DataRate	CameraRate	NumFrames	NumMarkers	Units	OrigDataRate	OrigDataStartFrame	OrigNumFrames
86.419753086420	86.419753086420	5	33	mm	86.419753086420	71	       141
Frame#	Time	Sacral			L.Shoulder			Chest			R.Shoulder			Neck			R.ASIS			L.ASIS			R.Thigh.Superior			R.Thigh.Lateral			R.Thigh.Inferior			R.Patella			L.Thigh.Superior			L.Thigh.Lateral			L.Thigh.Inferior			L.Patella			L.Shank.Superior			L.Shank.Lateral			L.Shank.Inferior			R.Shank.Superior			R.Shank.Lateral			R.Shank.Inferior			R.Heel			R.Midfoot.Superior			R.Midfoot.Lateral			R.Toe			L.Heel			L.Midfoot.Lateral			L.Midfoot.Superior			L.Toe			L.Elbow			L.Wrist			R.Elbow			R.Wrist			
		X1	Y1	Z1	X2	Y2	Z2	X3	Y3	Z3	X4	Y4	Z4	X5	Y5	Z5	X6	Y6	Z6	X7	Y7	Z7	X8	Y8	Z8	X9	Y9	Z9	X10	Y10	Z10	X11	Y11	Z11	X12	Y12	Z12	X13	Y13	Z13	X14	Y14	Z14	X15	Y15	Z15	X16	Y16	Z16	X17	Y17	Z17	X18	Y18	Z18	X19	Y19	Z19	X20	Y20	Z20	X21	Y21	Z21	X22	Y22	Z22	X23	Y23	Z23	X24	Y24	Z24	X25	Y25	Z25	X26	Y26	Z26	X27	Y27	Z27	X28	Y28	Z28	X29	Y29	Z29	X30	Y30	Z30	X31	Y31	Z31	X32	Y32	Z32	X33	Y33	Z33	

71	26.440000000000	891.489873160198	996.617193435854	530.146310898572	1036.909694117579	1416.555857407530	329.369125142233	1162.192721517306	1350.923317240091	476.122108473064	1102.949261386242	1427.551800993018	658.475575550112	1041.249842039002	1479.328938839814	486.165915859150	1120.411475758934	927.547122323475	632.194678019750	1091.287797359252	941.053847824646	356.921972795471	1103.804439589167	711.759888226878	607.666292824406	990.294674462865	625.189738024881	667.899421737741	1044.465109524406	556.221725585530	587.808715134078	1018.618388685633	472.770600458518	590.875385012173	1169.420790955590	765.616645474987	391.020788646687	1124.498763307878	633.400511150226	312.899215158521	1233.676811495161	581.468109658585	370.432161394450	1264.004915389340	518.724648600642	367.390064382366	1251.247381295541	445.683646864790	359.471428078223	1191.657787268328	310.362462589986	316.910512028326	1289.029717321324	219.623421240807	368.556250346720	975.558881055754	391.567899292386	596.525749885082	887.436406912125	300.357097929845	657.158546557051	912.616268508634	201.310715670179	590.966957778810	758.777861358701	46.298337945794	553.293354388624	929.905363886059	96.435341860096	594.214711299627	839.559601011954	37.274093587391	629.473050676212	1048.164758714262	39.890407361402	625.383195033439	1220.226519348155	40.508530004841	416.940275603495	1289.186703547834	45.143287135315	332.467384082027	1358.280374844505	124.113192604961	347.516919398230	1490.807997280532	97.524740461929	314.210263994783	873.138367366976	1104.089499276266	252.692789004862	789.833952136832	860.860854751209	273.399856487693	1279.244038742728	1147.960603707466	782.912859893755	1509.635534492443	1239.490411210230	734.547883106870	
72	26.451571428571	892.769269330713	995.510968250976	527.512328378182	1037.293601643841	1415.438222640971	327.196951451752	1162.560154076181	1350.057758759992	474.052905065794	1102.903169774302	1426.573191708829	656.293644482767	1041.411696337497	1478.177205906487	483.842249988762	1121.106534002838	925.982924054102	630.386160143913	1092.911321090534	939.802127297973	355.052223418117	1103.863451728076	710.010320150251	606.232007454352	989.659047443727	624.003708130585	666.000582908018	1043.943181888169	554.417947077045	586.383721922797	1017.158321098637	470.470754270143	589.299584228950	1171.172530721207	764.018454987359	389.669408753657	1124.704330683042	631.248868360015	313.454964333175	1233.971640412605	579.518313409675	370.712315221845	1263.200625172852	515.621739005135	368.430884136338	1249.457960114483	442.033312822935	360.630192994865	1187.273202106050	307.531219863996	319.215067848597	1282.950906775713	215.429235402775	371.298648896267	972.615626400381	389.904613345710	595.236071696550	882.703954488826	300.556551845388	656.127826682417	905.852720336858	200.783827031184	590.545994534807	749.612373878056	47.467988362102	553.601610203379	920.963030440824	96.553453986875	594.239338660228	830.428866808319	37.639333085291	629.569049849390	1038.961425811182	39.549371997689	625.488100985967	1210.273589735826	39.037319947115	420.472779372460	1278.408548851858	42.523023786636	335.186015678162	1350.007413306343	118.743210917793	350.612604915091	1481.509176430014	88.226096459308	315.538264701052	869.781195109502	1105.641803923828	252.175069480644	781.636086859020	864.249188388855	273.912659771096	1280.715834828553	1148.334891722490	780.388507856517	1508.456364084506	1245.101500251504	731.699504326474	
73	26.463142857143	894.078802339925	994.445680642212	524.720133466354	1037.869614183775	1414.338322961193	324.899374581556	1163.021167594903	1349.270352794567	471.967670613914	1102.814258452485	1425.657817165457	654.087027042969	1041.646179665098	1477.123242733700	481.366417225708	1121.880938728511	924.488593326334	628.496110572039	1094.641171369942	938.731665179398	353.198302347846	1104.181048446412	708.364915652286	604.642185453363	989.351132722718	622.838631118429	663.944075393838	1043.850773249973	552.641985366843	584.830472359883	1016.189589791208	468.053223460963	587.649915070450	1173.057719388797	762.515377156584	388.330136015971	1125.285681309416	629.519986417358	313.627878846479	1234.456376321082	577.829112563934	371.006453089642	1262.487549551493	512.749177768514	369.407345395474	1247.811193952345	438.678895454946	361.553399977407	1183.210424927996	305.101894367607	320.765308130581	1276.877125741135	211.549389594289	373.580691059982	970.002593195359	388.251027934946	593.862924598306	878.238057353169	300.915379151486	655.033319546181	899.276033551074	200.404785204407	590.121990994612	740.487679454468	49.018983968382	553.947537403678	912.176475782939	96.767703052999	594.335402474313	821.339564871690	38.187120147763	629.689459628991	1029.793999206365	39.197685843000	625.587565841696	1199.899436443931	37.962499921345	423.146967218310	1267.487912051675	40.275040590820	337.284513126643	1341.611492364237	113.649787226854	353.366363219447	1472.123031685591	79.088622686522	316.994477045304	867.367787642787	1106.747988073950	251.359350417661	775.126994957027	867.014545909556	274.043534656588	1281.449032287857	1148.145186072126	777.936283048226	1506.789152124467	1249.401069127849	729.061194221697	
74	26.474714285714	895.359286900630	993.467021387010	521.810049700205	1038.621146218071	1413.314277081007	322.510363179583	1163.569351937055	1348.591830170270	469.881634174298	1102.718728048789	1424.845037211836	651.880846999914	1041.974254024771	1476.214023459856	478.792761636087	1122.709321249228	923.118261854954	626.504836979211	1096.407297232527	937.900810220748	351.341504246998	1104.738095546727	706.887215696862	602.863745893837	989.403411540492	621.738145042190	661.758246270907	1044.199007072894	550.953186610938	583.149312158827	1015.763135342160	465.559795177425	585.988512142841	1175.019672161149	761.221035584748	387.009636686905	1126.294652260087	628.329230779873	313.319699027579	1235.165013641077	576.508220100114	371.209267533479	1261.946315242528	510.264592970455	370.171304400191	1246.416510316856	435.778001699352	362.150431613789	1179.663550485818	303.206330761961	321.448840027892	1271.018492926262	208.177547005803	375.305911149138	967.748260382911	386.658949074420	592.453062796544	874.077830159302	301.496130407261	653.916470107574	892.930295194434	200.241655281888	589.725109517424	731.432317068748	51.053626510467	554.340643933156	903.592419726055	97.082495378809	594.518011002922	812.306793425250	38.966938451390	629.838212477845	1020.665399257713	38.852946141240	625.672969029112	1189.508089861138	37.301524712504	424.952181288897	1256.808364303151	38.493031529899	338.738251564299	1333.306002034639	109.127086464129	355.648336137899	1462.903108688055	70.713635295742	318.444956484062	865.913608636113	1107.397352427427	250.209191951191	770.378976671411	869.072022379871	273.736008795749	1281.428000329712	1147.365629471655	775.590516538773	1504.672810899861	1252.386434140713	726.639657725345	
75	26.486285714286	896.564755540678	992.627294872509	518.818397608916	1039.519116203932	1412.436423569575	320.069011946189	1164.192492507155	1348.060360084804	467.807357317576	1102.653839700254	1424.182732126034	649.695014036511	1042.406576057332	1475.501002901982	476.178768361247	1123.562064045025	921.933563163754	624.386315433532	1098.142529944701	937.368383421117	349.440898620712	1105.520238310930	705.645591218061	600.869763757147	989.863026812602	620.745018940991	659.475047105188	1045.028123320747	549.410986357817	581.353440100096	1015.961707702399	463.036399933645	584.396294458107	1177.007520221489	760.262340073492	385.689477553680	1127.755126863262	627.754809908483	312.480064896618	1236.109071034313	575.634395489431	371.215887241350	1261.632541303649	508.276443523696	370.596814919753	1245.329475633421	433.421622560858	362.375791943494	1176.696915353228	301.921568148909	321.257262082538	1265.450940416303	205.423835948994	376.451586281439	965.919167650892	385.176641005244	591.070888604725	870.287875816084	302.364004501626	652.820517465456	886.883020676263	200.361749128543	589.391088957240	722.491658775851	53.688090243894	554.791725472144	895.266876393011	97.499408962362	594.804269416656	803.353244794392	40.038184113156	630.018980883651	1011.575438330247	38.533770867595	625.734973929791	1179.345093677687	37.013870802893	425.966300478506	1246.566791915533	37.205126198953	339.587528614940	1325.152658522802	105.373078645897	357.390433776531	1453.941106694224	63.561931642733	319.756647561972	865.428666169972	1107.601779763493	248.702304511349	767.452784197082	870.364209489956	272.939650711525	1280.625534791603	1145.992177971069	773.374280038242	1502.138893661240	1254.049634283192	724.441335817735	
